<svg id="Layer_5" data-name="Layer 5" xmlns="http://www.w3.org/2000/svg" xmlns:xlink="http://www.w3.org/1999/xlink" viewBox="0 0 1191.42 554.84"><defs><style>.cls-1,.cls-9{fill:none;}.cls-2{clip-path:url(#clip-path);}.cls-14,.cls-3{fill:#363436;}.cls-3{stroke:#808285;}.cls-13,.cls-24,.cls-3,.cls-9{stroke-miterlimit:10;}.cls-10,.cls-4,.cls-7{fill:#6d6e71;}.cls-27,.cls-5{fill:#e6e7e8;}.cls-13,.cls-6{fill:#f1f2f2;}.cls-27,.cls-7{font-size:18px;}.cls-15,.cls-27,.cls-7{font-family:Akzidenz-Grotesk BQ;}.cls-8{clip-path:url(#clip-path-2);}.cls-9{stroke:#00aeef;stroke-width:4px;}.cls-10{font-size:100px;font-family:Akzidenz-Grotesk BQ Light;}.cls-11{clip-path:url(#clip-path-3);}.cls-12{clip-path:url(#clip-path-4);}.cls-13,.cls-24{stroke:#d1d3d4;}.cls-15{font-size:12px;fill:#2bb673;}.cls-16,.cls-20{white-space:pre;}.cls-17{letter-spacing:29px;}.cls-18,.cls-20{letter-spacing:32px;}.cls-19{letter-spacing:22px;}.cls-21{letter-spacing:26px;}.cls-22{fill:#58595b;}.cls-23{clip-path:url(#clip-path-5);}.cls-24,.cls-26{fill:#fff;}.cls-25{fill:#27aae1;}</style><clipPath id="clip-path" transform="translate(-4.99 -37.5)"><rect class="cls-1" x="40.49" width="800" height="400"/></clipPath><clipPath id="clip-path-2" transform="translate(-4.99 -37.5)"><circle class="cls-1" cx="404.99" cy="152.5" r="55.5"/></clipPath><clipPath id="clip-path-3" transform="translate(-4.99 -37.5)"><rect class="cls-1" x="504.49" y="178" width="448" height="222"/></clipPath><clipPath id="clip-path-4" transform="translate(-4.99 -37.5)"><rect class="cls-1" x="505.49" y="175" width="450" height="309"/></clipPath><clipPath id="clip-path-5" transform="translate(-4.99 -37.5)"><rect class="cls-1" y="120" width="261.49" height="280"/></clipPath></defs><title>home</title><g class="cls-2"><rect class="cls-3" x="44.5" y="0.5" width="779" height="437" rx="45.7" ry="45.7"/></g><circle class="cls-4" cx="434" cy="15.5" r="3.5"/><rect class="cls-5" x="59.5" y="37.5" width="746" height="325"/><rect class="cls-6" x="263" y="184.5" width="335" height="178"/><g id="Layer_11" data-name="Layer 11"><text class="cls-7" transform="translate(288.5 213.5)">login<tspan x="0" y="86.4">password</tspan></text></g><g id="Layer_12" data-name="Layer 12"><rect class="cls-5" x="288.5" y="221.5" width="277" height="39"/><rect class="cls-5" x="288.5" y="307.5" width="277" height="39"/></g><g class="cls-8"><circle class="cls-9" cx="425.56" cy="83.56" r="51"/></g><g id="Layer_9" data-name="Layer 9"><text class="cls-10" transform="translate(392.5 108)">rc</text></g><g class="cls-11"><g class="cls-12"><rect class="cls-13" x="526.5" y="160.66" width="419" height="393.69" rx="27.19" ry="27.19"/><rect class="cls-14" x="533.35" y="194.5" width="406.65" height="334"/></g><text class="cls-15" transform="translate(544 216.5)">&lt;!-- 2. HOME SECTION --&gt;<tspan class="cls-16"><tspan x="0" y="14.4">    &lt;div class=&quot;container&quot;&gt;</tspan></tspan><tspan x="0" y="28.8"> </tspan><tspan class="cls-17" x="3.25" y="28.8">	</tspan><tspan class="cls-18" x="36" y="28.8">	</tspan><tspan class="cls-16" x="72" y="28.8"> &lt;div class=&quot;cols-md-12&quot;&gt;</tspan><tspan class="cls-16" x="0" y="43.2">   </tspan><tspan class="cls-19" x="9.76" y="43.2">	</tspan><tspan class="cls-20" x="36" y="43.2">		</tspan><tspan x="108" y="43.2">&lt;section class=&quot;type-wrapper text-center&quot;&gt;</tspan><tspan class="cls-16" x="0" y="57.6">   </tspan><tspan class="cls-19" x="9.76" y="57.6">	</tspan><tspan class="cls-20" x="36" y="57.6">			</tspan><tspan x="144" y="57.6">&lt;h1&gt;Hi! My name is Raymond Chung&lt;/h1&gt;</tspan><tspan class="cls-16" x="0" y="72">  </tspan><tspan class="cls-21" x="6.5" y="72">	</tspan><tspan class="cls-16" x="36" y="72">   </tspan><tspan class="cls-19" x="45.76" y="72">	</tspan><tspan class="cls-18" x="72" y="72">	</tspan><tspan class="cls-16" x="108" y="72">&lt;h2 class=&quot;typing&quot;&gt;&lt;span class=&quot;type-sentence&quot;&gt;I m    ake websites&lt;span&gt;_&lt;/span&gt;&lt;/span&gt;&lt;/h2&gt;</tspan><tspan class="cls-16" x="0" y="86.4">  </tspan><tspan class="cls-21" x="6.5" y="86.4">	</tspan><tspan class="cls-16" x="36" y="86.4">   </tspan><tspan class="cls-19" x="45.76" y="86.4">	</tspan><tspan x="72" y="86.4">&lt;/section&gt;</tspan><tspan class="cls-20" x="0" y="100.8">			</tspan><tspan x="108" y="100.8">&lt;/div&gt;</tspan><tspan class="cls-20" x="0" y="115.2">		</tspan><tspan x="72" y="115.2">&lt;/div&gt;</tspan></text><circle class="cls-22" cx="738.5" cy="175.63" r="3.13"/></g><g class="cls-23"><rect class="cls-24" x="0.5" y="91" width="246" height="365" rx="26.46" ry="26.46"/><rect class="cls-25" x="4.5" y="127.5" width="236" height="276"/></g><rect class="cls-14" x="106.88" y="114" width="31.25" height="2" rx="1" ry="1"/><circle class="cls-22" cx="123.5" cy="106.17" r="2.33"/><path class="cls-26" d="M128.49,284.33h33.33A33.33,33.33,0,1,1,156,265.51Z" transform="translate(-4.99 -37.5)"/><text class="cls-27" transform="translate(66.5 200)">L<tspan x="8.73" y="0">OADING 87%</tspan></text></svg>